<svg version="1" xmlns="http://www.w3.org/2000/svg" width="426.667" height="426.667" viewBox="0 0 320.000000 320.000000"><path d="M143.4 1C87.3 6.9 38.2 42.3 14.8 93.6-4.6 136-4.6 184 14.8 226.4c20.9 45.9 62.8 79.5 112.2 90 26.1 5.5 55.5 4.1 81.5-4.1 41.3-13 77-44.1 95.7-83.5 3-6.3 3.3-7.6 1.8-6.8-1 .5-3.7 1-6 1-4.7 0-5.2-.9-8.5-13.3l-1.8-6.8-15.1.3-15 .3-2.6 8.5c-1.4 4.7-2.9 9.1-3.3 9.8-1.2 1.7-8.8 1.5-11.5-.4-4.7-3.2-4.7-2.9 8.8-46.9 14.5-47.3 14.1-46.5 23.1-46.5 7.9 0 10.5 1.9 12.7 9.3 1 3.4 6.8 22.1 12.8 41.6l10.9 35.4 2.2-7c11.6-37 8.9-78-7.5-113.7C276.8 31.3 211.3-6.1 143.4 1zm10.5 38.8c4.2 2 5.2 5.7 2.4 9.1l-1.8 2.1-5.8-2c-6.6-2.3-12.8-1.9-15.9 1.2-4.3 4.3-1.3 8.3 9.8 13.4 13 6.1 18.5 13.6 17 23.7-1 6.8-5.1 12.2-11 14.8-11.9 5.1-30.7-.4-30.6-9 .1-3.2 2.2-6.1 4.3-6.1.9 0 3.7 1.4 6.2 3.2 3.7 2.6 5.4 3.2 9.6 3.1 8.3-.1 12.5-6.2 8.3-12.2-.9-1.2-5.5-4.1-10.3-6.4-12.8-6.3-17.1-11.3-17.1-20.5 0-4 3.6-10.5 7.3-13 6.5-4.4 20.2-5.1 27.6-1.4zM189 96.1c0 5.3-.3 6.9-1.4 6.9-.8 0-2.1.3-2.9.6-1 .3-2.2-.4-3.3-2.1-1.3-2.1-1.5-3.1-.6-5 .7-1.5 2-2.5 3.2-2.5 1.4 0 2-.7 2-2.3 0-1.3.3-2.7.6-3 1.6-1.6 2.4.9 2.4 7.4zm4.1-4.8c-1.3 1.3-2.6.3-1.6-1.2.3-.6 1.1-.8 1.7-.5.6.4.6 1-.1 1.7zM166 92c0 1.1.7 2 1.5 2s1.5.4 1.5 1c0 .5-.7 1-1.5 1-2 0-1.9 4 .2 5.5s.5 2.5-2.4 1.4c-2-.7-2.3-1.5-2.3-6.9 0-4.7.3-6 1.5-6 .8 0 1.5.9 1.5 2zm7 5.5c0 2.4.5 3.5 1.5 3.5s1.5-1.1 1.5-3.5.5-3.5 1.5-3.5c2.5 0 2 6.6-.7 8.4-1.9 1.3-2.5 1.4-4.3.2-2.6-1.7-3.5-8.6-1.1-8.6 1.2 0 1.6 1 1.6 3.5zm20.8 1.2c-.2 2.7-.7 4.8-1.3 4.8-.5 0-1.1-2.1-1.3-4.8-.3-3.8 0-4.7 1.3-4.7s1.6.9 1.3 4.7zm9-3.5c1.8 1.8 1.4 5.3-.8 7.3-1.8 1.7-2.1 1.7-4.5.1-2.7-1.8-3.1-3.6-1.5-6.7 1.2-2.1 5-2.5 6.8-.7zM60.2 130.9c7.3 2.8 13.1 9 15.2 16.2 1.3 4.1 1.6 10.4 1.6 28.9 0 27.6-.8 31.6-7.2 38.6-6 6.5-12.1 8.4-29.4 9.1-7.7.3-15.7.3-17.7-.1-7-1.3-6.7 1.1-6.7-47.4 0-24 .4-44.2.8-44.9 1.7-2.7 6-3.3 21.7-2.9 13.3.3 16.9.7 21.7 2.5zm47.5-.3c2.3 1.4 6.3 7.9 15.2 24.6 2.9 5.4 5.6 9.8 6.1 9.8.4 0 4.5-6.8 9.1-15.1 9.3-16.9 12.4-20.8 16.6-21.1 5.3-.2 7.8.3 9.8 2.3 1.9 1.9 2 3.5 2.3 43.7.1 22.9 0 42.7-.3 43.9-.7 2.9-3.9 4.5-8.8 4.5-7.7-.1-7.6.2-7.9-31.8l-.3-28.4-7.9 14.1c-11.8 21.2-13.8 21.1-25.5-1l-7.6-14.5-.5 30-.5 29.9-3.7 1.2c-4.4 1.5-10.3.1-11.8-2.7-1.1-2.1-1.2-81.8-.1-86 1.4-5.2 10-7 15.8-3.4zm89.5-.5c1.6.9 1.8 4.1 2 39.7l.3 38.7 17.1.3 17.2.2 1.2 3c1.9 4.5.5 9.9-2.8 11.1-1.6.6-11.3.9-24.5.7-21.6-.3-21.9-.3-23.8-2.7-1.8-2.2-1.9-4.5-1.9-45 0-46 0-46.4 5.3-47.4 2.6-.5 7.5.2 9.9 1.4z"/><path d="M183.7 96.7c-1.3 1.2-.7 4.3.8 4.3.9 0 1.5-.9 1.5-2.5 0-2.4-1-3.2-2.3-1.8zM198.6 96.7c-1.2 1.2-.6 4.3.9 4.3.8 0 1.5-.9 1.5-1.9 0-2.1-1.3-3.4-2.4-2.4zM33 176v33.3l8.8-.5c9.7-.6 13.4-1.9 15.9-5.7 1.6-2.3 1.8-5.6 2.1-25.1.4-25.1-.2-28.7-4.9-32.1-2.5-1.8-5-2.3-12.5-2.7l-9.4-.5V176zM269.1 169.2c-2.8 10.1-5.1 18.7-5.1 19.1 0 .4 4.9.7 10.9.7h10.8l-5.3-18.6c-2.9-10.3-5.5-18.9-5.7-19.1-.3-.2-2.8 7.9-5.6 17.9z"/></svg>